<svg xmlns="http://www.w3.org/2000/svg" viewBox="0 0 640 520" fill="none" role="img" aria-labelledby="title desc">
  <title id="title">Sykkel på vei hjem</title>
  <desc id="desc">En sykkel med to hjul, rammetriangler og en rett forgaffel, foran en stiplet rute mellom to punkter.</desc>
  <rect x="32" y="25" width="576" height="458" rx="45" fill="#DDEBE2"/>
  <circle cx="450" cy="145" r="80" fill="#F7C970"/>
  <path d="M32 395c117-78 176-45 252-16 76 30 176 23 324-53v112c0 25-20 45-45 45H77c-25 0-45-20-45-45v-43Z" fill="#B5D7C4"/>
  <path d="M85 410c90-63 160-64 244-37 92 30 171-13 236-56" stroke="#F6F7EF" stroke-width="5" stroke-linecap="round" stroke-dasharray="1 16"/>
  <circle cx="137" cy="172" r="22" fill="#FFFDF7" stroke="#1B4D3F" stroke-width="4"/>
  <circle cx="137" cy="172" r="5" fill="#EB7657"/>
  <path d="M137 193v21" stroke="#1B4D3F" stroke-width="4" stroke-linecap="round"/>
  <circle cx="507" cy="294" r="22" fill="#FFFDF7" stroke="#1B4D3F" stroke-width="4"/>
  <circle cx="507" cy="294" r="5" fill="#EB7657"/>
  <path d="M507 315v21" stroke="#1B4D3F" stroke-width="4" stroke-linecap="round"/>
  <path d="M159 184c66 2 76 76 112 83 61 11 54-69 108-67 46 1 50 73 106 85" stroke="#1B4D3F" stroke-width="3.5" stroke-linecap="round" stroke-dasharray="2 11"/>
  <g fill="#FFFDF7" stroke="#18483A" stroke-width="8">
    <circle cx="210" cy="350" r="65"/>
    <circle cx="455" cy="350" r="65"/>
  </g>
  <g fill="none" stroke="#9FC8B2" stroke-width="2" opacity=".8">
    <path d="M210 285v130M145 350h130M164 304l92 92M164 396l92-92"/>
    <path d="M455 285v130M390 350h130M409 304l92 92M409 396l92-92"/>
  </g>
  <g fill="none" stroke="#18483A" stroke-linecap="round" stroke-linejoin="round">
    <g stroke-width="8">
      <path d="M210 350 300 220 340 350 210 350"/>
      <path d="M300 220 401 235M413 260 340 350"/>
      <path d="M385 200 455 350"/>
      <path d="M300 220 291 190M267 187h49M377 200h49"/>
    </g>
    <g stroke-width="6">
      <circle cx="340" cy="350" r="15"/>
      <path d="M340 350 359 366h18M340 350l-19-16h-18"/>
    </g>
  </g>
  <circle cx="210" cy="350" r="5" fill="#18483A"/>
  <circle cx="455" cy="350" r="5" fill="#18483A"/>
  <path d="M332 367q8 6 17 0" stroke="#EB7657" stroke-width="6" stroke-linecap="round"/>
  <path d="M83 300c0-12 10-22 22-22s22 10 22 22-10 22-22 22-22-10-22-22Z" fill="#F7F3E9"/>
  <path d="m97 300 6 6 11-13" stroke="#1B4D3F" stroke-width="4" stroke-linecap="round" stroke-linejoin="round"/>
</svg>
